<svg xmlns="http://www.w3.org/2000/svg" viewBox="0 0 512 512">
  <rect width="512" height="512" rx="96" fill="#1a1a2e"/>
  <rect x="96" y="120" width="320" height="210" rx="18" fill="#16213e" stroke="#4f8ef7" stroke-width="10"/>
  <rect x="116" y="140" width="280" height="170" rx="10" fill="#0f1a35"/>
  <rect x="116" y="285" width="280" height="25" rx="0" fill="#0a0f20"/>
  <rect x="126" y="291" width="30" height="13" rx="3" fill="#4f8ef7"/>
  <rect x="130" y="152" width="110" height="75" rx="6" fill="#1e2a4a" stroke="#4f8ef7" stroke-width="3"/>
  <rect x="130" y="152" width="110" height="16" rx="6" fill="#2a3a5e"/>
  <circle cx="140" cy="160" r="4" fill="#ff5f57"/>
  <circle cx="153" cy="160" r="4" fill="#febc2e"/>
  <circle cx="166" cy="160" r="4" fill="#28c840"/>
  <rect x="260" y="165" width="120" height="80" rx="6" fill="#1e2a4a" stroke="#4f8ef7" stroke-width="3"/>
  <rect x="260" y="165" width="120" height="16" rx="6" fill="#2a3a5e"/>
  <circle cx="270" cy="173" r="4" fill="#ff5f57"/>
  <circle cx="283" cy="173" r="4" fill="#febc2e"/>
  <circle cx="296" cy="173" r="4" fill="#28c840"/>
  <rect x="240" y="330" width="32" height="40" rx="4" fill="#16213e" stroke="#4f8ef7" stroke-width="6"/>
  <rect x="180" y="368" width="152" height="20" rx="10" fill="#16213e" stroke="#4f8ef7" stroke-width="6"/>
</svg>
